<svg width="160" height="88" viewBox="0 0 160 88" fill="none" xmlns="http://www.w3.org/2000/svg">
<path d="M81.0868 22.6157H70.1816L70.2939 53.3528H83.4985L90.5898 33.411H90.6748L89.2903 53.3528H102.495L115.675 22.6157H104.77L98.0702 41.9115H97.9856L99.2327 22.6157H86.624L79.6673 41.9115H79.5826L81.0868 22.6157Z" fill="#E31836"/>
<path fill-rule="evenodd" clip-rule="evenodd" d="M69.0142 16.6768C64.7175 18.4759 60.4598 20.5787 56.554 22.6768C55.9259 22.6363 55.2682 22.6157 54.5799 22.6157H40.1531L37.4851 35.1674C35.1281 37.1024 32.9665 39.0683 31.0186 41.0435H23.1346C21.5906 45.1915 20.3283 46.1244 18.7519 46.1244C15.6839 46.1244 16.168 42.6498 17.1583 37.988C18.2034 33.0718 19.1862 29.8516 22.339 29.8516C23.8331 29.8317 24.9677 30.5126 24.2593 35.5336H35.4462C37.459 24.9753 31.5527 21.825 23.788 21.825C13.3843 21.825 6.29067 28.2977 4.55715 37.8608C2.48938 47.591 6.08606 54.151 16.8763 54.151C18.5783 54.151 20.2775 53.9668 21.918 53.5764C19.243 59.4818 19.1124 65.0454 21.5679 69.8625C29.2853 85.0078 63.8012 85.8982 98.2523 71.4713C106.835 67.8745 115.283 63.2751 122.025 58.7779C142.334 45.2314 151.159 29.3453 145.365 17.9739C137.647 2.82856 103.463 2.24738 69.0142 16.6768ZM24.2499 52.8632C21.6601 58.041 20.8086 63.0566 22.8203 67.0015C29.6072 80.3235 61.1374 80.1339 91.4405 67.4405C99.063 64.2503 105.972 60.5264 111.941 56.528C129.698 44.6328 136.579 31.2135 131.499 21.2414C124.709 7.91939 97.1572 6.50513 66.8566 19.1961C64.0426 20.3749 61.3281 21.6175 58.7227 22.9124C67.4568 24.2908 69.1831 30.3416 67.4855 38.3272C65.5125 47.6159 58.2316 53.3603 48.7683 53.3603H33.6181L37.0699 37.1208C35.5092 38.4423 34.1303 39.6711 32.8108 41.0435H34.5784C32.9123 47.3357 28.9666 51.0769 24.2499 52.8632ZM50.5867 29.5947H51.7766C53.7346 29.5947 54.7298 30.3181 55.2336 31.5527C55.7699 32.8323 55.5627 35.0048 54.9291 37.988C54.2956 40.9712 53.5798 43.1437 52.4973 44.4208C51.4696 45.6579 50.1676 46.3813 48.2096 46.3813H47.0173L50.5867 29.5947Z" fill="#E31836"/>
<path fill-rule="evenodd" clip-rule="evenodd" d="M152.777 25.2896H153.204L153.857 26.5018H154.606L153.888 25.2896C154.411 25.2223 154.693 25.0052 154.693 24.4615C154.693 24.1547 154.613 23.8279 154.346 23.6608C154.127 23.5311 153.8 23.5236 153.546 23.5236H152.124V26.5018H152.777V25.2896ZM152.777 24.7433V24.0699H153.416C153.698 24.0699 154.005 24.0699 154.005 24.3742C154.005 24.671 153.887 24.7508 153.561 24.7433H152.777Z" fill="#E31836"/>
<path fill-rule="evenodd" clip-rule="evenodd" d="M153.269 27.8238C154.765 27.8238 156 26.5966 156 25.0925C156 23.5885 154.765 22.3613 153.269 22.3613C151.76 22.3613 150.54 23.5885 150.54 25.0925C150.54 26.5966 151.76 27.8238 153.269 27.8238ZM153.269 23.0871C154.324 23.0871 155.274 23.9227 155.274 25.0925C155.274 26.2549 154.324 27.0979 153.269 27.0979C152.204 27.0979 151.266 26.2549 151.266 25.0925C151.266 23.9227 152.204 23.0871 153.269 23.0871Z" fill="#E31836"/>
</svg>
