<svg width="40" height="40" viewBox="0 0 40 40" fill="none" xmlns="http://www.w3.org/2000/svg">
<g clip-path="url(#clip0_2001_2881)">
<path d="M34.9998 7.95719V36C34.9998 38.2091 33.209 40 30.9998 40H9C6.79086 40 5 38.2091 5 36V4C5 1.79086 6.79086 0 9 0H26.3367L34.9998 7.95719Z" fill="#FDB022"/>
<g filter="url(#filter0_d_2001_2881)">
<path d="M34.9998 7.95719H27.3367C26.7844 7.95719 26.3367 7.50947 26.3367 6.95719V0L34.9998 7.95719Z" fill="#FEC84B"/>
</g>
<path d="M16.5589 28.884H14.2009L13.8229 30H12.2119L14.4979 23.682H16.2799L18.5659 30H16.9369L16.5589 28.884ZM16.1629 27.696L15.3799 25.383L14.6059 27.696H16.1629ZM25.1926 23.682L22.9516 30H21.0256L18.7846 23.682H20.4226L21.9886 28.452L23.5636 23.682H25.1926ZM27.3748 23.682V30H25.8358V23.682H27.3748Z" fill="white"/>
</g>
<defs>
<filter id="filter0_d_2001_2881" x="23.3367" y="-1" width="12.6631" height="11.9572" filterUnits="userSpaceOnUse" color-interpolation-filters="sRGB">
<feFlood flood-opacity="0" result="BackgroundImageFix"/>
<feColorMatrix in="SourceAlpha" type="matrix" values="0 0 0 0 0 0 0 0 0 0 0 0 0 0 0 0 0 0 127 0" result="hardAlpha"/>
<feOffset dx="-1" dy="1"/>
<feGaussianBlur stdDeviation="1"/>
<feComposite in2="hardAlpha" operator="out"/>
<feColorMatrix type="matrix" values="0 0 0 0 0 0 0 0 0 0 0 0 0 0 0 0 0 0 0.2 0"/>
<feBlend mode="normal" in2="BackgroundImageFix" result="effect1_dropShadow_2001_2881"/>
<feBlend mode="normal" in="SourceGraphic" in2="effect1_dropShadow_2001_2881" result="shape"/>
</filter>
<clipPath id="clip0_2001_2881">
<rect width="40" height="40" fill="white"/>
</clipPath>
</defs>
</svg>
