<svg width="24" height="24" viewBox="0 0 24 24" fill="none" xmlns="http://www.w3.org/2000/svg">
<path fill-rule="evenodd" clip-rule="evenodd" d="M12 2.00001C8.13585 2.00001 5.00003 5.14516 5.00003 9.02896C5.00003 9.97193 5.42362 11.2277 6.11971 12.6291C6.80794 14.0147 7.73071 15.4811 8.66124 16.8263C9.59055 18.1698 10.5209 19.3829 11.2194 20.2605C11.5342 20.6562 11.8016 20.9831 12 21.2226C12.1985 20.9831 12.4658 20.6562 12.7807 20.2605C13.4792 19.3829 14.4095 18.1698 15.3388 16.8263C16.2694 15.4811 17.1921 14.0147 17.8804 12.6291C18.5764 11.2277 19 9.97193 19 9.02896C19 5.14516 15.8642 2.00001 12 2.00001ZM12 22C11.6211 22.3262 11.621 22.3261 11.6209 22.326L11.6206 22.3256L11.6194 22.3242L11.615 22.3191L11.5983 22.2996L11.5342 22.2242C11.4784 22.1583 11.3969 22.0615 11.2933 21.937C11.0863 21.688 10.791 21.3281 10.4369 20.8832C9.72919 19.994 8.78451 18.7624 7.83882 17.3952C6.89435 16.0298 5.94212 14.5195 5.2241 13.0739C4.51394 11.6442 4.00003 10.2144 4.00003 9.02896C4.00003 4.59651 7.57994 1.00001 12 1.00001C16.4201 1.00001 20 4.59651 20 9.02896C20 10.2144 19.4861 11.6442 18.776 13.0739C18.0579 14.5195 17.1057 16.0298 16.1612 17.3952C15.2155 18.7624 14.2709 19.994 13.5631 20.8832C13.2091 21.3281 12.9138 21.688 12.7067 21.937C12.6032 22.0615 12.5217 22.1583 12.4658 22.2242L12.4018 22.2996L12.3851 22.3191L12.3807 22.3242L12.3795 22.3256L12.3792 22.326C12.3791 22.3261 12.379 22.3262 12 22ZM12 22L12.379 22.3262L12 22.7665L11.6211 22.3262L12 22ZM12 6.05406C10.3662 6.05406 9.03849 7.38415 9.03849 9.02896C9.03849 10.6738 10.3662 12.0039 12 12.0039C13.6338 12.0039 14.9616 10.6738 14.9616 9.02896C14.9616 7.38415 13.6338 6.05406 12 6.05406ZM8.03849 9.02896C8.03849 6.8355 9.81032 5.05406 12 5.05406C14.1897 5.05406 15.9616 6.8355 15.9616 9.02896C15.9616 11.2224 14.1897 13.0039 12 13.0039C9.81032 13.0039 8.03849 11.2224 8.03849 9.02896Z" fill="#7C4DFF"/>
</svg>
