<svg width="48" height="48" viewBox="0 0 48 48" fill="none" xmlns="http://www.w3.org/2000/svg">
<path d="M40.0139 16.584C40.0136 15.9787 39.8842 15.4438 39.6223 14.9847C39.3652 14.5333 38.9801 14.155 38.4635 13.8558C34.1993 11.3971 29.9309 8.94582 25.6681 6.48455C24.5189 5.82108 23.4046 5.84527 22.2639 6.51827C20.5666 7.51924 12.069 12.3877 9.53677 13.8544C8.49394 14.4581 7.9865 15.382 7.98625 16.5829C7.98462 21.5276 7.98625 26.4722 7.98462 31.417C7.98487 32.009 8.10882 32.5335 8.35909 32.9857C8.61638 33.4508 9.0069 33.8395 9.53539 34.1455C12.0677 35.6121 20.5665 40.4803 22.2634 41.4815C23.4046 42.1549 24.5189 42.1789 25.6685 41.5152C29.9314 39.0538 34.2 36.6027 38.4648 34.144C38.9933 33.8382 39.3839 33.4492 39.6411 32.9844C39.891 32.5323 40.0152 32.0078 40.0155 31.4156C40.0155 31.4156 40.0155 21.5288 40.0139 16.584Z" fill="#5C8DBC"/>
<path d="M24.0491 23.9518L8.35913 32.9857C8.61642 33.4508 9.00694 33.8395 9.53543 34.1455C12.0678 35.6121 20.5666 40.4803 22.2635 41.4815C23.4047 42.1549 24.5189 42.1789 25.6686 41.5152C29.9315 39.0538 34.2001 36.6027 38.4649 34.144C38.9934 33.8382 39.3839 33.4491 39.6412 32.9844L24.0491 23.9518Z" fill="#1A4674"/>
<path d="M19.4019 26.6277C20.3148 28.2216 22.0312 29.2966 24 29.2966C25.9811 29.2966 27.7072 28.2079 28.6155 26.597L24.049 23.9518L19.4019 26.6277Z" fill="#1A4674"/>
<path d="M40.0139 16.584C40.0136 15.9787 39.8842 15.4438 39.6224 14.9847L24.0491 23.9518L39.6412 32.9845C39.8911 32.5323 40.0153 32.0078 40.0155 31.4156C40.0155 31.4156 40.0155 21.5288 40.0139 16.584Z" fill="#1B598E"/>
<path d="M39.1565 24.5974H37.938V25.8161H36.7194V24.5974H35.5011V23.3791H36.7194V22.1607H37.938V23.3791H39.1565V24.5974Z" fill="white"/>
<path d="M34.7107 24.5974H33.4924V25.8161H32.274V24.5974H31.0555V23.3791H32.274V22.1607H33.4924V23.3791H34.7107V24.5974Z" fill="white"/>
<path d="M28.6155 26.597C27.7071 28.2079 25.981 29.2966 24 29.2966C22.0312 29.2966 20.3148 28.2216 19.4018 26.6277C18.9583 25.8532 18.7033 24.9565 18.7033 23.9999C18.7033 21.0747 21.0748 18.7033 24 18.7033C25.9562 18.7033 27.6635 19.7649 28.581 21.3425L33.2107 18.6766C31.3705 15.5001 27.935 13.363 24 13.363C18.1253 13.363 13.363 18.1254 13.363 23.9999C13.363 25.9271 13.8757 27.7345 14.7718 29.2934C16.6073 32.4867 20.0526 34.6369 24 34.6369C27.9547 34.6369 31.4054 32.478 33.2382 29.2753L28.6155 26.597Z" fill="white"/>
</svg>
